# xmcd CD database file
#
# Track frame offsets:
#	150
#	19017
#	37502
#	53406
#	79725
#	102628
#	123356
#	144610
#	166513
#	183834
#	201075
#	225090
#	244814
#	264505
#
# Disc length: 3803 seconds
#
# Revision: 6
# Processed by: cddbd v1.5.2PL0 Copyright (c) Steve Scherf et al.
# Submitted via: CDex 1.70beta3
#
DISCID=a00ed90e
DTITLE=加藤ミリヤ - BEST DESTINY
DYEAR=2008
DGENRE=JPop
TTITLE0=恋シテル Album Ver.
TTITLE1=このままずっと朝まで
TTITLE2=ディア ロンリーガール
TTITLE3=19 Memories
TTITLE4=ジョウネツ
TTITLE5=愛が消えた日
TTITLE6=Better days -sweet love side-
TTITLE7=for so long
TTITLE8=So Gooood
TTITLE9=夜空
TTITLE10=ONE DAY～夜空Remix～ 加藤ミリヤ m-flo
TTITLE11=for so long PARTII
TTITLE12=ミシェル～愛のテーマRemix～
TTITLE13=FUTURECHECKA feat. SIMON, COMA-CHI and TARO SOUL
EXTD=YEAR: 2008
EXTT0=
EXTT1=
EXTT2=
EXTT3=
EXTT4=
EXTT5=
EXTT6=
EXTT7=
EXTT8=
EXTT9=
EXTT10=
EXTT11=
EXTT12=
EXTT13=
PLAYORDER=
